<?xml version="1.0" encoding="utf-8"?>
<!-- Generator: Adobe Illustrator 18.1.1, SVG Export Plug-In . SVG Version: 6.00 Build 0)  -->
<svg version="1.1" id="Layer_1" xmlns="http://www.w3.org/2000/svg" xmlns:xlink="http://www.w3.org/1999/xlink" x="0px" y="0px"
	 viewBox="0 0 265.8 125.3" enable-background="new 0 0 265.8 125.3" xml:space="preserve">
<g>
	<path fill="#FFFFFF" d="M23.4,10.3V2.1c0,0-0.5-2.1,1.1-2.1c1.6,0,1.3,2,1.3,2v8.3c0,0-0.1,2.6,0.3,3c0.3,0.4,3.4,1.7,3.4,1.7
		s1.9,1,1.6,2.1c-0.3,1.1-1.5,0.8-2.1,0.6c-0.6-0.3-2.4-0.7-3.2-0.6c-0.8,0.1-2.5,0.2-3.1-0.3C22,16.2,21.8,15.1,22,15
		c0.6-0.6,1.3-1.8,1.3-2.3C23.4,11.7,23.4,10.3,23.4,10.3z"/>
	<path fill-rule="evenodd" clip-rule="evenodd" fill="#FFFFFF" d="M12.4,49.3c0,0-0.1-1.2,0.3-1.5c0.4-0.3,1.4-0.4,2.2-0.1
		c0.8,0.3,1.5,2,1.7,3.9c0.2,1.9,0.3,10.3,0.3,12.8c0,2.5-0.5,6.4-1,7.2c-0.5,0.8-1.9,1.5-2.4,1.4c-0.6-0.1-0.8-0.8-1-1.6
		c-0.2-0.8-0.2-11-0.2-11L12.4,49.3z M17.4,17.1c0.6,0.5,1.4,1.3,0.3,2.3c-0.8,0.7-0.4,0.7-0.9,1.3c-0.4,0.6-2.2,2-2.4,2.8
		c-0.4,1.7,0,3.9-0.4,5.3c-0.4,1.4-2.2,3.1-2.6,3.7c-0.4,0.6-0.8,2.3-0.5,2.7c0.3,0.4,2,0.5,2,0.5l33.9,0.1c0,0,1.2-0.1,1.8,0.3
		c0.9,0.6,0.4,2.2-0.2,3.1c-0.4,0.7-3.4,0.5-3.4,0.5H18.4c0,0-2.4-0.3-3.2,0.3c-0.8,0.7-0.3,2.6-0.3,2.6s5.1,0,5.6,0.3
		c0.5,0.3,0.9,1.3,0.9,2.2c0,0.8-0.1,24.5-0.1,24.5s-0.2,2.3,0.2,2.8c0.3,0.5,1.9,0.8,2.7,0.8c0.8,0,2.3,0,2.8-1
		c0.4-1,0.8-3.8,0.9-5.6c0.1-1.8-0.2-13.8-0.2-13.8s0.2-2.1-0.3-2.9c-0.5-0.9-2.1-2.2-3.1-2.2c-1,0-1.4-0.2-1.4-1.4
		c0-1.3,0.7-3.1,1.1-3.2c1-0.3,6-0.1,6-0.1s1.4-0.1,1.9,0.2c0.5,0.3,0.6,2.1,0.6,2.1l0.1,19.3c0,0,0,5.6,0.1,6.4
		c0.1,0.8,0,2.6,1.4,2.3c1.4-0.3,1.8-0.9,1.9-2.3c0.2-1.4,0.9-10.7,0.8-12c-0.2-1.3-0.3-6.4-0.3-7.5c0-1.1,0.1-2.4-0.4-2.9
		c-0.5-0.4-2.3-0.9-2.4-1.4c-0.2-0.5,0.5-3.8,0.9-4c0.3-0.3,2.9-0.2,2.9-0.2s1.8-0.1,2.3,0.2c1.2,0.5,0.8,3.5,0.8,3.5v22.7
		c0,0,0,3.2,0.4,3.5c0.3,0.2,1.8,0.2,1.8,0.2s4.6-0.2,5.1,0c0.5,0.2,1.3,0.2,1.2,1.4c-0.1,1.2-0.4,2.1-0.8,2.1h-2.7H1.9
		c0,0-1.3,0.2-1.7-0.1C-0.1,75.9,0,74.6,0,74.1c0-0.5,0.4-0.8,0.8-1.1c0.3-0.3,1.1,0.2,1.5-2.2c0.4-2.4,0.4-14,0.4-14
		s0.1-13.5,0.1-13.9c0-0.4,0.1-1-0.2-1.9c-0.3-0.8-2-1.7-2.3-2.2c-0.3-0.5,0.1-2.4,0.4-2.8c0.3-0.4,1.2,0,1.8-0.6
		c1.4-1.3,2.8-5,3.7-8.1c0.9-3,3.1-4.8,3.9-6c0.8-1.2,5.5-4.5,5.9-4.7C16.5,16.6,16.8,16.6,17.4,17.1z M6.2,49.2
		c0.5-0.2,1.3-0.4,1.6,0.5c0.3,0.9,0.8,7.7,0.8,10.5c0,2.8-0.4,10-0.8,11.1c-0.4,1.1-1.1,1.7-1.5,1.4c-0.4-0.2-0.6-2.4-0.6-3.4
		c0-1,0.3-14,0.3-14S5.7,49.5,6.2,49.2z"/>
	<path fill="#FFFFFF" d="M42,42.8c0.3-0.1,1.4-0.1,2.2-0.1s1.5-0.1,1.9,0.2c0.4,0.2,0.6,2.7,0,3.9c-0.6,1.3-0.1,4.4-0.1,6.4
		c0,2,0.2,7.8,0,9.7c-0.3,1.8-0.8,3.7-1.4,4c-0.7,0.3-1,0-1.3-0.2C43.1,66.4,43,54.2,43,52.2c0-2.1,0.1-3.5-0.3-4.1
		c-0.4-0.6-1.3-0.6-1.3-1c-0.1-0.4-0.2-1.6,0-2.4C41.5,44,41.7,42.9,42,42.8z"/>
	<path fill="#FFFFFF" d="M74.4,36v0.4c-0.1,0-0.7,0.1-1,0.1c-0.7,0.1-0.9,0.5-0.9,1.3c-0.1,0.8-0.1,1.4-0.1,5v2.5
		c0,2.6-0.3,5.4-2.4,7.1c-1.8,1.4-3.6,1.7-5.2,1.7c-1.3,0-3.7-0.1-5.6-1.6C58,51.4,57,49.6,57,46.2v-3.4c0-3.6,0-4.2,0-5
		c-0.1-0.8-0.3-1.2-1.1-1.3c-0.2,0-1.2-0.1-1.3-0.1V36h7.6v0.4c-0.1,0-0.7,0-1,0.1c-0.7,0.1-0.9,0.5-0.9,1.3c0,0.8,0,1.4,0,5v3.3
		c0,3.4,0.7,4.8,2,5.8c1.1,0.9,2.3,1,3.1,1c1.1,0,2.5-0.3,3.5-1.3c1.4-1.3,1.5-3.4,1.5-5.8v-2.9c0-3.6,0-4.2,0-5
		c-0.1-0.8-0.3-1.2-1.1-1.3c-0.2,0-1-0.1-1.1-0.1V36H74.4z"/>
	<path fill="#FFFFFF" d="M86.5,38.4v0.3c0.1,0,1.2,0,1.5,0.2c0.5,0.2,0.7,0.6,0.7,1.8l0,9L76.6,38H76v12.8c0,1.8-0.2,2.4-0.8,2.5
		c-0.3,0.1-1.3,0.1-1.3,0.1v0.3h6v-0.4c0,0-1.1,0-1.5-0.1c-0.4-0.1-0.7-0.7-0.8-2.3v-8.4c1.6,1.6,12,11.5,12,11.5h0.7l0-13.6
		c0-1.1,0.2-1.6,0.8-1.7c0.3-0.1,0.9-0.1,1-0.1v-0.3H86.5z"/>
	<path fill="#FFFFFF" d="M124.4,50.6c-0.2,0.6-0.4,1.6-1.2,1.8c-0.6,0.2-1.5,0.2-2.1,0.2c-2.2,0-2.6-0.3-2.6-1.7c0-0.6,0-2.5,0-3.2
		v-1.6c0-0.1,0-0.2,0.1-0.2c0.5,0,2.7,0,3.1,0.1c0.8,0.1,1.1,0.4,1.2,0.8c0.1,0.3,0.1,0.5,0.1,0.7c0,0,0,0,0,0.2h0.3l0.4-3.4h-0.3
		c-0.1,0.2-0.2,0.2-0.2,0.3c-0.2,0.2-0.5,0.3-1,0.3c-0.5,0-3,0-3.5,0c-0.1,0-0.2-0.1-0.2-0.2l0-5.4c0,0,3.4,0.1,3.7,0.1
		c1.3,0.3,1.2,1,1.2,1.6h0.4c0-0.3,0.3-2.8,0.3-2.8h0h-13.8v0.3c0.3,0,0.3,0,0.4,0c0.3,0,0.6,0,0.9,0.1c0.2,0.1,0.3,0.2,0.3,0.4
		c0,0.2-0.1,0.5-0.2,0.8c-0.5,1.3-3.4,7.9-4.3,10.2h-0.1l-3.8-9.3c-0.3-0.7-0.5-1.3-0.5-1.6c0-0.2,0.1-0.3,0.2-0.4
		c0.2-0.1,0.5-0.1,1.2-0.1v-0.4h-11v0.3c2.1-0.1,1.9,1.2,1.9,1.2v12.3c0,0,0.2,1.3-1.9,1.2v0.3h6.5v-0.3c-2,0-1.8-1.2-1.8-1.2V40
		c0,0,0-1.1,1-1c0.5,0,1.2,1.4,1.7,2.4l5.7,12.8h0.5c0,0,5.4-11.3,6.3-13.3c0.6-1.3,0.9-1.7,1.2-1.8c0.2-0.1,1.5-0.4,1.5,1
		c0,0.7,0,11.4-0.1,12.3c-0.1,0.6-0.2,1-0.6,1.1c-0.2,0-0.4,0.1-1.1,0.1v0.4c0.4,0,0.4,0,0.4,0h9.9c0.1-0.5,0.5-2.5,0.6-3.1H124.4z"
		/>
	<path fill="#FFFFFF" d="M151.2,52.2c0,0,0.2,1.3-1.9,1.2v0.3h6.5v-0.3c-2,0-1.8-1.2-1.8-1.2V40c0,0-0.2-1.2,1.8-1.2v-0.3h-6.5v0.3
		c2.1-0.1,1.9,1.2,1.9,1.2V52.2z"/>
	<path fill="#FFFFFF" d="M144.7,44.5l-0.6-0.4c-1.8-1.3-2.3-2-2.3-2.9c0-1.2,1-2.1,2.6-2.1c1.4,0,2.1,0.6,2.4,1
		c0.5,0.5,0.6,1.2,0.6,1.3c0,0.1,0,0.2,0,0.4h0.4l0.1-3.2c-0.1-0.2-1.4-0.5-3.2-0.5c-3,0-5,1.6-5,3.9c0,1.7,0.8,3.1,3.2,4.8l1,0.7
		c1.8,1.3,2.1,2.3,2.1,3.3c0,1.1-1,2.3-2.9,2.3c0,0-2,0-3.2-1.1c-1.2-1.2-2.8-3.1-4.7-5.4c2.2-1.7,2.9-3.1,2.9-4.6
		c0-1.4-0.9-2.4-1.5-2.8c-1.2-0.8-2.6-0.9-4-0.9H126v0.4c0,0,2.1-0.2,2.1,1.2c0,0.7,0,11.4,0,12.3c0,1.3-1.5,1.2-1.8,1.2v0.4h6.7
		v-0.4c-1.2,0-2.2,0-2.2-1.2c0-0.9-0.1-4.7-0.1-4.7c0-0.4,2.4-0.1,2.5,0c0.3,0.3,1.3,1.7,2.2,2.8c1.2,1.6,1.6,2.1,2.4,2.6
		c0,0,3.7,2.5,8.4,0.2c1.4-0.7,2.1-2.4,2.1-3.6C148.2,47.7,147.3,46.4,144.7,44.5z M134.1,46.1c-0.4,0.3-0.7,0.3-1.5,0.3
		c-0.5,0-1.2-0.1-1.7-0.2c-0.2-0.1-0.2-0.1-0.2-0.4v-6.2c0-0.2,0-0.2,0.2-0.3c0.2-0.1,0.6-0.1,1.2-0.1c1.3,0,3.3,0.8,3.3,3.7
		C135.4,44.7,134.8,45.7,134.1,46.1z"/>
	<path fill="#FFFFFF" d="M175.7,38.4v0.4c0.3,0,0.3,0,0.4,0c0.4,0.1,0.5,0.3,0.5,0.5c0,0.3-0.1,0.6-0.3,1.1
		c-0.3,0.6-3.1,5.1-3.3,5.6c-0.3-0.5-2.5-4.1-3.4-5.6c0,0-0.3-0.5-0.6-1.3c-0.1-0.4,0.8-0.4,0.8-0.4v-0.3h-14l-0.4,2.7
		c0,0,0,0,0.4,0c0.2-0.9,0.8-1.5,1.8-1.6c1.4,0,2.9,0,2.9,0v8.3c0,1.9,0,3.5-0.1,4.3c-0.1,0.6-0.2,1-0.6,1.1c-0.2,0-0.9,0.1-1.2,0.1
		v0.4h6.6v-0.4c-0.3,0-0.8,0-1-0.1c-0.7-0.1-0.8-0.5-0.9-1.1c-0.1-0.9-0.1-2.5-0.1-4.4v-8.3h2.7c0.3,0.2,0.5,0.6,0.8,1
		c0.8,1.1,3.7,5.5,3.8,5.9c0.3,0.6,0.5,1,0.5,2.1v1.7c0,0.3,0,1.2-0.1,2c0,0.6-0.2,1-0.7,1.1c-0.2,0-0.4,0.1-1.2,0.1v0.4h7.1v-0.4
		c-0.7,0-1.1,0-1.4-0.1c-0.7-0.1-0.9-0.5-0.9-1.1c-0.1-0.9-0.1-1.7-0.1-2v-1.7c0-0.7,0-1.3,0.3-2c0.4-0.9,3.5-5.7,4.2-6.5
		c0.5-0.6,0.7-0.8,1.2-1c0.3-0.2,0.7-0.2,1-0.2c0,0,0.1,0,0.4,0v-0.4H175.7z"/>
	<path fill="#FFFFFF" d="M222.5,38.1c4.8,0,9.1,3.3,9.1,8.1c0,4.3-3.3,8.1-8.8,8.1c-4.8,0-9.1-3.3-9.1-8.1
		C213.6,42,217,38.1,222.5,38.1z M223.3,53.5c1.4,0,4.9-0.9,4.9-6.3c0-4.3-2.5-8.2-6.4-8.2c-1.4,0-4.9,0.9-4.9,6.3
		C216.9,49.6,219.4,53.5,223.3,53.5z"/>
	<path fill="#FFFFFF" d="M253.5,38.4v0.7c-1.5,0-1.9,0.5-2.4,1.9l-4.6,13.2h-0.7l-4.2-11.2h0l-3.8,11.2h-0.7l-4.9-13.1
		c-0.6-1.8-1-2-2.2-2v-0.7h6.6v0.7h-0.6c-0.7,0-1.2,0.3-1.2,0.9c0,0.2,0,0.5,0.3,1.2l3.2,9h0l3.8-12h0.4l4.4,12.1h0l2.7-8.9
		c0.2-0.6,0.3-1,0.3-1.3c0-0.7-0.6-1-1.7-1v-0.7H253.5z"/>
	<path fill="#FFFFFF" d="M263.5,51.8l-6.1-13.3h-0.4l-4.9,11.7c-1.2,2.9-1.7,3.2-3.2,3.3v0.7h5.4v-0.7c-1.4,0-1.7-0.3-1.7-0.8
		c0-0.2,0-0.5,0.6-2.1l0.7-1.8h5.1l0.9,2.1c0.5,1.1,0.6,1.6,0.6,1.8c0,0.6-0.4,0.8-1.6,0.8v0.7h6.9v-0.7
		C264.7,53.4,264.1,53.1,263.5,51.8z M254.2,47.9l2.1-5.6l2.4,5.6H254.2z"/>
	<path fill="#FFFFFF" d="M205.7,36.1v0.4c2.3,0,2.1,1.4,2.1,1.4v14.1l0-0.1c0,0-0.1,1.4-2.1,1.4v0.4h7.4v-0.4c-2,0-2.1-1.4-2.1-1.4
		V37.9c0,0-0.2-1.4,2.1-1.4v-0.4L205.7,36.1z"/>
	<path fill-rule="evenodd" clip-rule="evenodd" fill="#FFFFFF" d="M187.1,53.8c3.8,0,6.3-2.7,6.3-6.2c0-3.5-2.3-5.7-6.1-5.7
		c-4.5,0-6.3,3.3-6.3,5.9C181,50.5,182.8,53.8,187.1,53.8z M187.8,53c-2.9,0-4.7-2.5-4.7-5.7c0-3.8,2-4.7,3.7-4.7
		c2.5,0,4.4,2.1,4.4,5.5C191.3,52.5,188.8,53,187.8,53z"/>
	<path fill="#FFFFFF" d="M197.6,47.9c0-0.1,0-0.1,0.1-0.1c0.3,0,1.9,0,2.2,0c0.5,0.1,0.7,0.3,0.8,0.5c0.1,0.2,0.1,0.4,0.1,0.5
		c0,0.1,0,0.2,0.1,0.2c0.2,0,0.2-0.2,0.2-0.3c0-0.1,0-0.8,0.1-1.1c0-0.5,0.1-0.8,0.1-0.9c0-0.1,0-0.1-0.1-0.1
		c-0.1,0-0.1,0.1-0.2,0.2c-0.2,0.2-0.4,0.3-0.7,0.3c-0.2,0-0.4,0-0.7,0l-1.9,0c-0.1,0-0.1,0-0.1-0.1v-3.8c0-0.2,0-0.2,0.1-0.2l2.3,0
		c0.6,0,0.9,0.2,1,0.5c0.1,0.2,0.1,0.5,0.1,0.6c0,0.2,0,0.2,0.2,0.2c0.1,0,0.1-0.1,0.2-0.2c0-0.2,0.1-1.1,0.1-1.2
		c0-0.4,0.1-0.6,0.1-0.7l-0.1-0.1c-0.1,0-0.2,0.1-0.2,0.1c-0.2,0-0.3,0-0.6,0.1c-0.3,0-3.4,0-4,0c-0.4,0-1.4,0-2.2,0
		c-0.2,0-0.3,0-0.3,0.2c0,0.1,0.1,0.1,0.3,0.1c0.2,0,0.5,0,0.6,0c0.5,0.1,0.6,0.3,0.7,0.9c0,0.5,0,0.9,0,3.2v2.7
		c0,1.5,0,2.6-0.1,3.2c-0.1,0.4-0.1,0.8-0.4,0.8c-0.1,0-0.3,0.1-0.5,0.1c-0.2,0-0.2,0-0.2,0.1c0,0.1,0.1,0.2,0.3,0.2
		c0.6,0,1.5,0,1.9,0c0.4,0,1.3,0,2.3,0c0.2,0,0.3,0,0.3-0.2c0-0.1-0.1-0.1-0.3-0.1c-0.2,0-0.5,0-0.8-0.1c-0.5-0.1-0.5-0.4-0.6-0.8
		c-0.1-0.6-0.1-1.8-0.1-3.2V47.9z"/>
	<path fill-rule="evenodd" clip-rule="evenodd" fill="#FFFFFF" d="M165.8,76c5.1,0,8.3-3.6,8.3-8.2s-3.1-7.5-8.1-7.5
		c-6,0-8.2,4.4-8.2,7.8C157.8,71.8,160.1,76,165.8,76z M166.6,75.1c-3.8,0-6.1-3.3-6.1-7.4c0-5,2.6-6.2,4.9-6.2
		c3.3,0,5.8,2.8,5.8,7.2C171.3,74.4,168,75.1,166.6,75.1z"/>
	<path fill="#FFFFFF" d="M73,74.9c0.8-1.2,0.7-3.6,0.7-3.6h-0.6c-0.1,0.3-0.1,0.4-0.1,0.4c-0.1,0.4-0.4,1.1-0.8,1.5
		c-1,1.1-2.3,1.3-4.6,1.3c-3.3,0-7.8-2.7-7.8-8.2c0-2.2,0.5-4.4,2.3-6c1.1-0.9,2.5-1.4,4.7-1.4c2.3,0,4.2,0.6,5,1.4
		c0.6,0.5,1,1.1,0.9,2.6h0.6v-4.5l-0.2,0c-0.7-0.1-1.5-0.3-2.5-0.4c-1.1-0.1-2.1-0.2-3.6-0.2c-3.7,0-6.1,0.9-7.9,2.4
		c-2.4,2-2.9,4.7-2.9,6.3c0,2.2,0.6,4.8,3.1,6.8c2.3,1.8,5.1,2.5,8.5,2.5c1.6,0,4.3-0.2,4.7-0.3C72.7,75.4,72.8,75.2,73,74.9z"/>
	<path fill="#FFFFFF" d="M110.4,91.6c0,1.8,0,3.3-0.1,4.1c-0.1,0.6-0.2,1-0.6,1.1c-0.2,0-0.4,0.1-0.7,0.1c-0.2,0-0.3,0.1-0.3,0.2
		c0,0.1,0.1,0.2,0.4,0.2c0.8,0,2-0.1,2.5-0.1c1.1,0,2.5,0.1,5.4,0.1c0.7,0,0.9,0,1.1-0.5c0.1-0.4,0.3-1.7,0.3-2.2
		c0-0.2,0-0.4-0.2-0.4c-0.1,0-0.2,0.1-0.2,0.3c-0.1,0.8-0.4,1.2-0.9,1.4c-0.5,0.2-1.3,0.2-1.8,0.2c-2,0-2.3-0.3-2.3-1.6
		c0-0.6,0-2.4,0-3v-1.5c0-0.1,0-0.2,0.1-0.2c0.5,0,2.4,0,2.8,0.1c0.7,0.1,1,0.4,1.1,0.8c0.1,0.3,0.1,0.5,0.1,0.7
		c0,0.1,0,0.2,0.2,0.2c0.2,0,0.2-0.2,0.2-0.4c0-0.1,0-0.9,0.1-1.3c0.1-1,0.2-1.3,0.2-1.4c0-0.1-0.1-0.2-0.1-0.2
		c-0.1,0-0.2,0.1-0.3,0.3c-0.2,0.2-0.5,0.3-0.9,0.3c-0.5,0-2.7,0-3.1,0c-0.1,0-0.1-0.1-0.1-0.2v-4.9c0-0.1,0-0.2,0.1-0.2
		c0.4,0,2.4,0,2.8,0.1c1,0.1,1.2,0.4,1.3,0.7c0.1,0.2,0.1,0.6,0.1,0.7c0,0.2,0,0.3,0.2,0.3c0.1,0,0.2-0.1,0.2-0.2
		c0-0.2,0.1-1.1,0.1-1.3c0.1-0.9,0.2-1.1,0.2-1.3c0-0.1,0-0.2-0.1-0.2c-0.1,0-0.2,0.1-0.3,0.1c-0.2,0-0.5,0.1-0.8,0.1
		c-0.4,0-4.2,0-4.9,0c-0.5,0-1.8-0.1-2.8-0.1c-0.3,0-0.4,0-0.4,0.2c0,0.1,0.1,0.2,0.3,0.2c0.3,0,0.6,0,0.8,0.1
		c0.6,0.1,0.8,0.4,0.8,1.1c0,0.6,0,1.2,0,4.1V91.6z"/>
	<path fill-rule="evenodd" clip-rule="evenodd" fill="#FFFFFF" d="M121.2,91.6c0,1.8,0,3.3-0.1,4.1c-0.1,0.6-0.2,1-0.6,1.1
		c-0.2,0-0.4,0.1-0.7,0.1c-0.2,0-0.3,0.1-0.3,0.2c0,0.1,0.1,0.2,0.4,0.2c0.8,0,2-0.1,2.5-0.1c1,0,2.7,0.2,4.1,0.2
		c3.6,0,5.6-1.4,6.5-2.3c1.1-1.1,2.1-3,2.1-5.4c0-2.3-0.9-3.9-1.9-4.9c-2.1-2.2-5.4-2.2-7.8-2.2c-1.2,0-2.4,0.1-3,0.1
		c-0.5,0-1.8-0.1-2.8-0.1c-0.3,0-0.4,0-0.4,0.2c0,0.1,0.1,0.2,0.3,0.2c0.3,0,0.6,0,0.8,0.1c0.6,0.1,0.8,0.4,0.8,1.1
		c0,0.6,0,1.2,0,4.1V91.6z M123.7,87.9c0-1.5,0-3.2,0-3.9c0-0.2,0.1-0.3,0.2-0.4c0.2-0.1,0.9-0.1,1.3-0.1c1.5,0,3.7,0.2,5.5,1.9
		c0.8,0.8,1.9,2.4,1.9,4.9c0,2-0.4,3.8-1.6,4.8c-1.2,1-2.5,1.4-4.5,1.4c-1.5,0-2.3-0.4-2.6-0.8c-0.2-0.2-0.2-1-0.2-1.5
		c0-0.4,0-1.9,0-3.9V87.9z"/>
	<path fill="#FFFFFF" d="M137.8,91.6c0,1.9,0,3.4-0.1,4.2c-0.1,0.6-0.2,0.9-0.6,1c-0.2,0-0.4,0.1-0.7,0.1c-0.2,0-0.3,0.1-0.3,0.2
		c0,0.1,0.1,0.2,0.4,0.2c0.8,0,2-0.1,2.5-0.1c0.5,0,1.8,0.1,3,0.1c0.2,0,0.4-0.1,0.4-0.2c0-0.1-0.1-0.2-0.3-0.2c-0.3,0-0.7,0-1-0.1
		c-0.6-0.1-0.7-0.4-0.8-1c-0.1-0.8-0.1-2.4-0.1-4.3v-3.4c0-3,0-3.5,0-4.1c0-0.7,0.2-1,0.7-1.1c0.2,0,0.4-0.1,0.6-0.1
		c0.2,0,0.3,0,0.3-0.2c0-0.1-0.2-0.2-0.4-0.2c-0.7,0-1.9,0.1-2.4,0.1c-0.6,0-1.8-0.1-2.5-0.1c-0.3,0-0.5,0-0.5,0.2
		c0,0.2,0.1,0.2,0.3,0.2c0.2,0,0.5,0,0.7,0.1c0.4,0.1,0.6,0.4,0.7,1.1c0,0.6,0,1.2,0,4.1V91.6z"/>
	<path fill="#FFFFFF" d="M151.9,97.5c1.2,0,2.7-0.1,3.5-0.4c0.3-0.1,0.4-0.2,0.5-0.6c0.2-0.7,0.4-2.4,0.4-2.6c0-0.2,0-0.3-0.2-0.3
		c-0.2,0-0.2,0.1-0.3,0.4c-0.1,0.4-0.3,0.9-0.7,1.3c-0.8,0.9-1.8,1.1-3.6,1.1c-2.6,0-6.1-2.3-6.1-6.9c0-1.9,0.4-3.7,1.8-5
		c0.9-0.8,2-1.2,3.7-1.2c1.8,0,3.3,0.5,4,1.2c0.5,0.5,0.7,1.2,0.8,1.8c0,0.3,0,0.4,0.2,0.4c0.2,0,0.2-0.2,0.2-0.4
		c0-0.4,0-1.5,0.1-2.1c0-0.7,0.1-0.9,0.1-1.1c0-0.1-0.1-0.2-0.3-0.2c-0.6-0.1-1.2-0.2-1.9-0.3c-0.9-0.1-1.6-0.2-2.8-0.2
		c-2.9,0-4.8,0.8-6.2,2.1c-1.9,1.7-2.3,4-2.3,5.3c0,1.9,0.5,4.1,2.4,5.7C147,97,149.3,97.5,151.9,97.5z"/>
	<path fill="#FFFFFF" d="M159.1,91.6c0,1.9,0,3.4-0.1,4.2c-0.1,0.6-0.2,0.9-0.6,1c-0.2,0-0.4,0.1-0.7,0.1c-0.2,0-0.3,0.1-0.3,0.2
		c0,0.1,0.1,0.2,0.4,0.2c0.8,0,2-0.1,2.5-0.1c0.5,0,1.8,0.1,3,0.1c0.2,0,0.4-0.1,0.4-0.2c0-0.1-0.1-0.2-0.3-0.2c-0.3,0-0.7,0-1-0.1
		c-0.6-0.1-0.7-0.4-0.8-1c-0.1-0.8-0.1-2.4-0.1-4.3v-3.4c0-3,0-3.5,0-4.1c0-0.7,0.2-1,0.7-1.1c0.2,0,0.4-0.1,0.6-0.1
		c0.2,0,0.3,0,0.3-0.2c0-0.1-0.2-0.2-0.4-0.2c-0.7,0-1.9,0.1-2.4,0.1c-0.6,0-1.8-0.1-2.5-0.1c-0.3,0-0.5,0-0.5,0.2
		c0,0.2,0.1,0.2,0.3,0.2c0.2,0,0.5,0,0.7,0.1c0.4,0.1,0.6,0.4,0.7,1.1c0,0.6,0,1.2,0,4.1V91.6z"/>
	<path fill="#FFFFFF" d="M167.3,86.4L167.3,86.4c0.4,0.4,2.6,2.8,4.7,4.9c2,2,4.5,4.6,5.7,5.7c0.2,0.2,0.4,0.4,0.7,0.4
		c0.2,0,0.3-0.2,0.3-0.6l0.2-12.3c0-1.1,0.2-1.5,0.7-1.7c0.2-0.1,0.4-0.1,0.6-0.1c0.2,0,0.4-0.1,0.4-0.2c0-0.2-0.2-0.2-0.4-0.2
		c-1,0-1.7,0.1-1.9,0.1c-0.4,0-1.3-0.1-2.4-0.1c-0.3,0-0.5,0-0.5,0.2c0,0.1,0.1,0.2,0.3,0.2c0.3,0,0.7,0,1,0.1
		c0.5,0.2,0.6,0.6,0.7,1.8l0.2,8.7h-0.1c-0.3-0.3-3-3.1-4.3-4.4c-2.8-2.8-5.8-6-6-6.3c-0.3-0.4-0.5-0.6-0.7-0.6
		c-0.2,0-0.3,0.3-0.3,0.7L166,94.4c0,1.7-0.1,2.3-0.6,2.4c-0.3,0.1-0.6,0.1-0.9,0.1c-0.2,0-0.3,0-0.3,0.2c0,0.2,0.2,0.2,0.4,0.2
		c1,0,1.9-0.1,2.1-0.1c0.4,0,1.1,0.1,2.4,0.1c0.3,0,0.4,0,0.4-0.2c0-0.1-0.1-0.2-0.3-0.2c-0.3,0-0.7,0-1-0.1
		c-0.4-0.1-0.6-0.6-0.7-2.2L167.3,86.4z"/>
	<path fill="#FFFFFF" d="M183.4,91.6c0,1.8,0,3.3-0.1,4.1c-0.1,0.6-0.2,1-0.6,1.1c-0.2,0-0.4,0.1-0.7,0.1c-0.2,0-0.3,0.1-0.3,0.2
		c0,0.1,0.1,0.2,0.4,0.2c0.8,0,2-0.1,2.5-0.1c1.1,0,2.5,0.1,5.4,0.1c0.7,0,0.9,0,1.1-0.5c0.1-0.4,0.3-1.7,0.3-2.2
		c0-0.2,0-0.4-0.2-0.4c-0.1,0-0.2,0.1-0.2,0.3c-0.1,0.8-0.4,1.2-0.9,1.4c-0.5,0.2-1.3,0.2-1.8,0.2c-2,0-2.3-0.3-2.3-1.6
		c0-0.6,0-2.4,0-3v-1.5c0-0.1,0-0.2,0.1-0.2c0.5,0,2.4,0,2.8,0.1c0.7,0.1,1,0.4,1.1,0.8c0.1,0.3,0.1,0.5,0.1,0.7
		c0,0.1,0,0.2,0.2,0.2c0.2,0,0.2-0.2,0.2-0.4c0-0.1,0-0.9,0.1-1.3c0.1-1,0.2-1.3,0.2-1.4c0-0.1-0.1-0.2-0.1-0.2
		c-0.1,0-0.2,0.1-0.3,0.3c-0.2,0.2-0.5,0.3-0.9,0.3c-0.4,0-2.7,0-3.1,0c-0.1,0-0.1-0.1-0.1-0.2v-4.9c0-0.1,0-0.2,0.1-0.2
		c0.4,0,2.4,0,2.8,0.1c1,0.1,1.2,0.4,1.3,0.7c0.1,0.2,0.1,0.6,0.1,0.7c0,0.2,0,0.3,0.2,0.3c0.1,0,0.2-0.1,0.2-0.2
		c0-0.2,0.1-1.1,0.1-1.3c0.1-0.9,0.2-1.1,0.2-1.3c0-0.1,0-0.2-0.1-0.2c-0.1,0-0.2,0.1-0.3,0.1c-0.2,0-0.5,0.1-0.8,0.1
		c-0.4,0-4.2,0-4.9,0c-0.5,0-1.8-0.1-2.8-0.1c-0.3,0-0.4,0-0.4,0.2c0,0.1,0.1,0.2,0.3,0.2c0.3,0,0.6,0,0.8,0.1
		c0.6,0.1,0.8,0.4,0.8,1.1c0,0.6,0,1.2,0,4.1V91.6z"/>
	<path fill-rule="evenodd" clip-rule="evenodd" fill="#FFFFFF" d="M82.3,71c0.1,0,0.2,0,0.2,0.1l1.6,4.1c0.1,0.2,0,0.4-0.2,0.4
		c-0.2,0-0.3,0.1-0.3,0.2c0,0.1,0.2,0.1,0.6,0.2c1.6,0,3,0,3.7,0c0.7,0,0.9,0,0.9-0.2c0-0.1-0.1-0.2-0.3-0.2c-0.2,0-0.5,0-0.8-0.1
		c-0.4-0.1-1-0.4-1.7-2.1c-1.2-3-4.4-10.9-4.8-12c-0.2-0.4-0.3-0.6-0.5-0.6c-0.2,0-0.3,0.2-0.5,0.8l-4.9,12.2
		c-0.4,1-0.8,1.6-1.7,1.8c-0.2,0-0.4,0-0.6,0c-0.2,0-0.2,0-0.2,0.2c0,0.2,0.1,0.2,0.4,0.2c1,0,2.1-0.1,2.3-0.1
		c0.6,0,1.4,0.1,2.1,0.1c0.2,0,0.3,0,0.3-0.2c0-0.1-0.1-0.2-0.3-0.2h-0.3c-0.6,0-0.8-0.3-0.8-0.6c0-0.2,0.1-0.7,0.3-1.2l1.1-2.8
		c0-0.1,0.1-0.2,0.2-0.2H82.3z M78.4,70l-0.1-0.1l1.8-4.8l0.1-0.2l0.1,0.2l1.8,4.8c0,0.1,0,0.1-0.1,0.1H78.4z"/>
	<path fill-rule="evenodd" clip-rule="evenodd" fill="#FFFFFF" d="M89.1,70.4c0,1.8,0,3.3-0.1,4.1c-0.1,0.6-0.2,1-0.6,1.1
		c-0.2,0-0.4,0.1-0.7,0.1c-0.2,0-0.3,0.1-0.3,0.2c0,0.1,0.1,0.2,0.4,0.2c0.8,0,2-0.1,2.4-0.1c0.3,0,1.7,0.1,2.9,0.1
		c0.3,0,0.4-0.1,0.4-0.2c0-0.1-0.1-0.2-0.2-0.2c-0.2,0-0.7,0-1-0.1c-0.6-0.1-0.7-0.5-0.8-1.1c-0.1-0.8-0.1-2.4-0.1-4.2v-0.3
		c0-0.1,0.1-0.2,0.2-0.2l1.7,0c0.1,0,0.3,0,0.4,0.1c0.3,0.3,1.1,1.6,1.9,2.7c1.1,1.5,1.8,2.4,2.7,2.9c0.5,0.3,1,0.4,2.1,0.4h1.9
		c0.2,0,0.4,0,0.4-0.2c0-0.1-0.1-0.2-0.2-0.2c-0.2,0-0.3,0-0.5-0.1c-0.3-0.1-1.1-0.2-2.2-1.3c-1.1-1.2-2.5-2.9-4.2-5.1
		c2-1.6,2.6-2.9,2.6-4.4c0-1.3-0.8-2.3-1.3-2.7c-1.1-0.7-2.4-0.8-3.6-0.8c-0.6,0-2.1,0.1-2.7,0.1c-0.4,0-1.6-0.1-2.7-0.1
		c-0.3,0-0.4,0-0.4,0.2c0,0.1,0.1,0.2,0.3,0.2c0.3,0,0.6,0,0.8,0.1c0.6,0.1,0.8,0.4,0.8,1.1c0,0.6,0,1.2,0,4.1V70.4z M91.4,62.6
		c0-0.2,0-0.2,0.2-0.3c0.2-0.1,0.5-0.1,1-0.1c1.1,0,3,0.8,3,3.6c0,1.6-0.6,2.5-1.1,2.9c-0.4,0.3-0.6,0.3-1.4,0.3
		c-0.5,0-1.1-0.1-1.5-0.2c-0.1-0.1-0.2-0.1-0.2-0.4V62.6z"/>
	<path fill="#FFFFFF" d="M104.7,74.8c0.4,0.9,0.5,1.2,0.7,1.2c0.3,0,0.4-0.3,0.9-1.4c0.4-1,1.3-3.1,2.6-5.9c1.1-2.4,1.6-3.4,2.3-5.3
		c0.5-1.2,0.8-1.6,1.1-1.8c0.4-0.2,0.8-0.2,1-0.2s0.3,0,0.3-0.2c0-0.1-0.2-0.2-0.4-0.2c-0.6,0-1.5,0.1-1.8,0.1c-0.3,0-1.1-0.1-2-0.1
		c-0.4,0-0.5,0-0.5,0.2c0,0.1,0.2,0.2,0.3,0.2c0.3,0,0.5,0,0.8,0.1c0.2,0.1,0.3,0.2,0.3,0.4c0,0.2-0.1,0.5-0.2,0.7
		c-0.5,1.3-3,7.6-3.8,9.7H106l-3.3-8.8c-0.3-0.7-0.4-1.2-0.4-1.5c0-0.2,0.1-0.3,0.2-0.4c0.2-0.1,0.4-0.1,0.8-0.1
		c0.2,0,0.3,0,0.3-0.2c0-0.1-0.2-0.2-0.4-0.2c-1,0-1.9,0.1-2.4,0.1c-0.7,0-1.8-0.1-2.8-0.1c-0.3,0-0.5,0-0.5,0.2
		c0,0.1,0.1,0.2,0.2,0.2c0.2,0,0.5,0,0.8,0.1c0.7,0.2,1,0.4,1.5,1.5L104.7,74.8z"/>
	<path fill="#FFFFFF" d="M113.9,70.1c0,1.8,0,3.3-0.1,4.1c-0.1,0.6-0.2,1-0.6,1.1c-0.2,0-0.4,0.1-0.7,0.1c-0.2,0-0.3,0.1-0.3,0.2
		c0,0.1,0.1,0.2,0.4,0.2c0.8,0,2-0.1,2.5-0.1c1.2,0,2.5,0.1,5.4,0.1c0.7,0,0.9,0,1.1-0.5c0.1-0.4,0.3-1.7,0.3-2.2
		c0-0.2,0-0.4-0.2-0.4c-0.1,0-0.2,0.1-0.2,0.3c-0.1,0.8-0.4,1.2-0.9,1.4c-0.5,0.2-1.3,0.2-1.8,0.2c-2,0-2.3-0.3-2.3-1.6
		c0-0.6,0-2.4,0-3v-1.5c0-0.1,0-0.2,0.1-0.2c0.5,0,2.4,0,2.8,0.1c0.7,0.1,1,0.4,1.1,0.8c0.1,0.3,0.1,0.5,0.1,0.7
		c0,0.1,0,0.2,0.2,0.2c0.2,0,0.2-0.2,0.2-0.4c0-0.1,0-0.9,0.1-1.3c0.1-1,0.2-1.3,0.2-1.4c0-0.1-0.1-0.2-0.1-0.2
		c-0.1,0-0.2,0.1-0.3,0.3c-0.2,0.2-0.5,0.3-0.9,0.3c-0.4,0-2.7,0-3.1,0c-0.1,0-0.1-0.1-0.1-0.2v-4.9c0-0.1,0-0.2,0.1-0.2
		c0.4,0,2.4,0,2.8,0.1c1,0.1,1.2,0.4,1.3,0.7c0.1,0.2,0.1,0.6,0.1,0.7c0,0.2,0,0.3,0.2,0.3s0.2-0.1,0.2-0.2c0-0.2,0.1-1.1,0.1-1.3
		c0.1-0.9,0.2-1.1,0.2-1.3c0-0.1,0-0.2-0.1-0.2c-0.1,0-0.2,0.1-0.3,0.1c-0.2,0-0.5,0.1-0.8,0.1c-0.4,0-4.3,0-4.9,0
		c-0.5,0-1.8-0.1-2.8-0.1c-0.3,0-0.4,0-0.4,0.2c0,0.1,0.1,0.2,0.3,0.2c0.3,0,0.6,0,0.8,0.1c0.6,0.1,0.8,0.4,0.8,1.1
		c0,0.6,0,1.2,0,4.1V70.1z"/>
	<path fill-rule="evenodd" clip-rule="evenodd" fill="#FFFFFF" d="M125.4,70.1c0,1.8,0,3.3-0.1,4.1c-0.1,0.6-0.2,1-0.6,1.1
		c-0.2,0-0.4,0.1-0.7,0.1c-0.2,0-0.3,0.1-0.3,0.2c0,0.1,0.1,0.2,0.4,0.2c0.8,0,2-0.1,2.4-0.1c0.3,0,1.7,0.1,2.9,0.1
		c0.3,0,0.4-0.1,0.4-0.2c0-0.1-0.1-0.2-0.2-0.2c-0.2,0-0.7,0-1-0.1c-0.6-0.1-0.7-0.5-0.8-1.1c-0.1-0.8-0.1-2.4-0.1-4.2v-0.3
		c0-0.1,0.1-0.2,0.2-0.2l1.7,0c0.1,0,0.3,0,0.4,0.1c0.3,0.3,1.1,1.6,1.9,2.7c1.1,1.5,1.8,2.4,2.7,2.9c0.5,0.3,1,0.4,2.1,0.4h1.9
		c0.2,0,0.4,0,0.4-0.2c0-0.1-0.1-0.2-0.2-0.2c-0.2,0-0.3,0-0.5-0.1c-0.3-0.1-1.1-0.2-2.2-1.3c-1.1-1.2-2.5-2.9-4.2-5.1
		c2-1.6,2.6-2.9,2.6-4.4c0-1.3-0.8-2.3-1.3-2.7c-1.1-0.7-2.4-0.8-3.6-0.8c-0.6,0-2.1,0.1-2.7,0.1c-0.4,0-1.6-0.1-2.7-0.1
		c-0.3,0-0.4,0-0.4,0.2c0,0.1,0.1,0.2,0.3,0.2c0.3,0,0.6,0,0.8,0.1c0.6,0.1,0.8,0.4,0.8,1.1c0,0.6,0,1.2,0,4.1V70.1z M127.7,62.2
		c0-0.2,0-0.2,0.2-0.3c0.2-0.1,0.5-0.1,1-0.1c1.1,0,3,0.8,3,3.6c0,1.6-0.6,2.5-1.1,2.9c-0.4,0.3-0.6,0.3-1.4,0.3
		c-0.5,0-1.1-0.1-1.5-0.2c-0.1-0.1-0.2-0.1-0.2-0.4V62.2z"/>
	<path fill="#FFFFFF" d="M179,66.6c0-3,0-3.5,0-4.1c0-0.7,0.2-1,0.7-1.1c0.2,0,0.5-0.1,0.8-0.1c0.2,0,0.4,0,0.4-0.2
		c0-0.1-0.1-0.2-0.4-0.2c-0.8,0-2.2,0.1-2.6,0.1c-0.5,0-1.8-0.1-2.7-0.1c-0.3,0-0.4,0-0.4,0.2c0,0.1,0.1,0.2,0.3,0.2
		c0.3,0,0.5,0,0.6,0.1c0.6,0.1,0.8,0.4,0.8,1.1c0,0.6,0,1.2,0,4.1v3.4c0,1.8,0,3.3-0.1,4.1c-0.1,0.6-0.2,1-0.6,1.1
		c-0.2,0-0.4,0.1-0.7,0.1c-0.2,0-0.3,0.1-0.3,0.2c0,0.1,0.1,0.2,0.4,0.2c0.8,0,2-0.1,2.5-0.1c1.6,0,2.9,0.1,5.7,0.1
		c1,0,1.1-0.1,1.2-0.5c0.2-0.6,0.3-2,0.3-2.2c0-0.2,0-0.3-0.2-0.3c-0.2,0-0.2,0.1-0.2,0.3c0,0.4-0.3,0.9-0.5,1.2
		c-0.5,0.5-1.2,0.5-2.3,0.5c-1.5,0-2-0.1-2.4-0.4c-0.4-0.4-0.4-1.7-0.4-4.2V66.6z"/>
	<path fill="#FFFFFF" d="M189,66.6c0-3,0-3.5,0-4.1c0-0.7,0.2-1,0.7-1.1c0.2,0,0.5-0.1,0.8-0.1c0.2,0,0.4,0,0.4-0.2
		c0-0.1-0.1-0.2-0.4-0.2c-0.8,0-2.2,0.1-2.6,0.1c-0.5,0-1.8-0.1-2.7-0.1c-0.3,0-0.4,0-0.4,0.2c0,0.1,0.1,0.2,0.3,0.2
		c0.3,0,0.5,0,0.6,0.1c0.6,0.1,0.8,0.4,0.8,1.1c0,0.6,0,1.2,0,4.1v3.4c0,1.8,0,3.3-0.1,4.1c-0.1,0.6-0.2,1-0.6,1.1
		c-0.2,0-0.4,0.1-0.7,0.1c-0.2,0-0.3,0.1-0.3,0.2c0,0.1,0.1,0.2,0.4,0.2c0.8,0,2-0.1,2.5-0.1c1.6,0,2.9,0.1,5.7,0.1
		c1,0,1.1-0.1,1.2-0.5c0.2-0.6,0.3-2,0.3-2.2c0-0.2,0-0.3-0.2-0.3c-0.2,0-0.2,0.1-0.2,0.3c0,0.4-0.3,0.9-0.5,1.2
		c-0.5,0.5-1.2,0.5-2.3,0.5c-1.5,0-2-0.1-2.4-0.4c-0.4-0.4-0.4-1.7-0.4-4.2V66.6z"/>
	<path fill="#FFFFFF" d="M197.7,70.1c0,1.8,0,3.3-0.1,4.1c-0.1,0.6-0.2,1-0.6,1.1c-0.2,0-0.4,0.1-0.7,0.1c-0.2,0-0.3,0.1-0.3,0.2
		c0,0.1,0.1,0.2,0.4,0.2c0.8,0,2-0.1,2.5-0.1c1.1,0,2.5,0.1,5.4,0.1c0.7,0,0.9,0,1.1-0.5c0.1-0.4,0.3-1.7,0.3-2.2
		c0-0.2,0-0.4-0.2-0.4c-0.1,0-0.2,0.1-0.2,0.3c-0.1,0.8-0.4,1.2-0.9,1.4c-0.5,0.2-1.3,0.2-1.8,0.2c-2,0-2.3-0.3-2.3-1.6
		c0-0.6,0-2.4,0-3v-1.5c0-0.1,0-0.2,0.1-0.2c0.5,0,2.4,0,2.8,0.1c0.7,0.1,1,0.4,1.1,0.8c0.1,0.3,0.1,0.5,0.1,0.7
		c0,0.1,0,0.2,0.2,0.2c0.2,0,0.2-0.2,0.2-0.4c0-0.1,0-0.9,0.1-1.3c0.1-1,0.2-1.3,0.2-1.4c0-0.1-0.1-0.2-0.1-0.2
		c-0.1,0-0.2,0.1-0.3,0.3c-0.2,0.2-0.5,0.3-0.9,0.3c-0.4,0-2.7,0-3.1,0c-0.1,0-0.1-0.1-0.1-0.2v-4.9c0-0.1,0-0.2,0.1-0.2
		c0.4,0,2.4,0,2.8,0.1c1,0.1,1.2,0.4,1.3,0.7c0.1,0.2,0.1,0.6,0.1,0.7c0,0.2,0,0.3,0.2,0.3c0.1,0,0.2-0.1,0.2-0.2
		c0-0.2,0.1-1.1,0.1-1.3c0.1-0.9,0.2-1.1,0.2-1.3c0-0.1,0-0.2-0.1-0.2c-0.1,0-0.2,0.1-0.3,0.1c-0.2,0-0.5,0.1-0.8,0.1
		c-0.4,0-4.2,0-4.9,0c-0.5,0-1.8-0.1-2.8-0.1c-0.3,0-0.4,0-0.4,0.2c0,0.1,0.1,0.2,0.3,0.2c0.3,0,0.6,0,0.8,0.1
		c0.6,0.1,0.8,0.4,0.8,1.1c0,0.6,0,1.2,0,4.1V70.1z"/>
	<path fill="#FFFFFF" d="M220,72.3c0-1,0-1.8,0-2.3c0-0.7,0.2-1,0.7-1.1c0.2,0,0.4-0.1,0.5-0.1c0.1,0,0.3,0,0.3-0.2
		c0-0.2-0.1-0.2-0.4-0.2c-0.6,0-1.7,0.1-2.3,0.1c-0.6,0-1.8-0.1-2.8-0.1c-0.3,0-0.4,0-0.4,0.2c0,0.1,0.1,0.2,0.3,0.2
		c0.3,0,0.6,0,0.8,0.1c0.6,0.1,0.8,0.4,0.8,1.1c0,0.6,0,1.3,0,2.3V74c0,0.3-0.1,0.6-0.4,0.7c-0.5,0.2-1.1,0.2-1.7,0.2
		c-4.1,0-6.8-3.1-6.8-7.3c0-2.4,0.7-3.9,1.8-4.8c1.4-1.1,2.8-1.2,3.9-1.2c2.2,0,3.8,0.9,4.3,1.5c0.5,0.5,0.6,1.2,0.7,1.6
		c0,0.2,0.1,0.3,0.2,0.3c0.2,0,0.2-0.1,0.2-0.4c0-2.4,0.1-3,0.1-3.2c0-0.1,0-0.2-0.3-0.2c-0.4,0-1.1-0.1-1.5-0.2
		c-0.4-0.1-2.1-0.3-3.4-0.3c-1.6,0-3.4,0.1-5.2,1.3c-1.8,1.1-3.4,3.3-3.4,6.4c0,5.4,4.2,7.6,9,7.6c1.5,0,3.4-0.2,4.7-0.9
		c0.2-0.1,0.3-0.2,0.3-0.7V72.3z"/>
	<path fill="#FFFFFF" d="M223.2,70.1c0,1.8,0,3.3-0.1,4.1c-0.1,0.6-0.2,1-0.6,1.1c-0.2,0-0.4,0.1-0.7,0.1c-0.2,0-0.3,0.1-0.3,0.2
		c0,0.1,0.1,0.2,0.4,0.2c0.8,0,2-0.1,2.5-0.1c1.1,0,2.5,0.1,5.4,0.1c0.7,0,0.9,0,1.1-0.5c0.1-0.4,0.3-1.7,0.3-2.2
		c0-0.2,0-0.4-0.2-0.4c-0.1,0-0.2,0.1-0.2,0.3c-0.1,0.8-0.4,1.2-0.9,1.4c-0.5,0.2-1.3,0.2-1.8,0.2c-2,0-2.3-0.3-2.3-1.6
		c0-0.6,0-2.4,0-3v-1.5c0-0.1,0-0.2,0.1-0.2c0.5,0,2.4,0,2.8,0.1c0.7,0.1,1,0.4,1.1,0.8c0.1,0.3,0.1,0.5,0.1,0.7
		c0,0.1,0,0.2,0.2,0.2c0.2,0,0.2-0.2,0.2-0.4c0-0.1,0-0.9,0.1-1.3c0.1-1,0.2-1.3,0.2-1.4c0-0.1-0.1-0.2-0.1-0.2
		c-0.1,0-0.2,0.1-0.3,0.3c-0.2,0.2-0.5,0.3-0.9,0.3c-0.4,0-2.7,0-3.1,0c-0.1,0-0.1-0.1-0.1-0.2v-4.9c0-0.1,0-0.2,0.1-0.2
		c0.4,0,2.4,0,2.8,0.1c1,0.1,1.2,0.4,1.3,0.7c0.1,0.2,0.1,0.6,0.1,0.7c0,0.2,0,0.3,0.2,0.3c0.1,0,0.2-0.1,0.2-0.2
		c0-0.2,0.1-1.1,0.1-1.3c0.1-0.9,0.2-1.1,0.2-1.3c0-0.1,0-0.2-0.1-0.2c-0.1,0-0.2,0.1-0.3,0.1c-0.2,0-0.5,0.1-0.8,0.1
		c-0.4,0-4.2,0-4.9,0c-0.5,0-1.8-0.1-2.8-0.1c-0.3,0-0.4,0-0.4,0.2c0,0.1,0.1,0.2,0.3,0.2c0.3,0,0.6,0,0.8,0.1
		c0.6,0.1,0.8,0.4,0.8,1.1c0,0.6,0,1.2,0,4.1V70.1z"/>
	<path fill="#FFFFFF" d="M156.5,74.9c0.8-1.2,0.7-3.6,0.7-3.6h-0.6c-0.1,0.3-0.1,0.4-0.1,0.4c-0.1,0.4-0.4,1.1-0.8,1.5
		c-1,1.1-2.3,1.3-4.6,1.3c-3.3,0-7.8-2.7-7.8-8.2c0-2.2,0.5-4.4,2.3-6c1.1-0.9,2.5-1.4,4.7-1.4c2.3,0,4.2,0.6,5,1.4
		c0.6,0.5,1,1.1,0.9,2.6h0.6v-4.5l-0.2,0c-0.7-0.1-1.5-0.3-2.5-0.4c-1.1-0.1-2.1-0.2-3.6-0.2c-3.7,0-6.1,0.9-7.9,2.4
		c-2.4,2-2.9,4.7-2.9,6.3c0,2.2,0.6,4.8,3.1,6.8c2.3,1.8,5.1,2.5,8.5,2.5c1.6,0,4.3-0.2,4.7-0.3C156.3,75.4,156.4,75.2,156.5,74.9z"
		/>
	<path fill-rule="evenodd" clip-rule="evenodd" fill="#FFFFFF" d="M63.5,97.6c4.2,0,6.8-3,6.8-6.7s-2.5-6.1-6.6-6.1
		c-4.9,0-6.8,3.6-6.8,6.4C56.9,94.1,58.8,97.6,63.5,97.6z M64.2,96.8c-3.1,0-5-2.7-5-6.1c0-4.1,2.1-5.1,4-5.1c2.7,0,4.8,2.3,4.8,6
		C68,96.3,65.3,96.8,64.2,96.8z"/>
	<path fill="#FFFFFF" d="M74.5,91.3c0-0.1,0-0.1,0.1-0.1c0.3,0,2,0,2.4,0c0.5,0.1,0.8,0.4,0.8,0.6C78,92,78,92.2,78,92.3
		c0,0.1,0,0.2,0.1,0.2c0.2,0,0.2-0.2,0.2-0.3c0-0.1,0-0.9,0.1-1.2c0-0.5,0.1-0.9,0.1-1c0-0.1,0-0.1-0.1-0.1c-0.1,0-0.1,0.1-0.2,0.2
		c-0.2,0.2-0.4,0.3-0.7,0.3c-0.2,0-0.5,0-0.7,0l-2.1,0c-0.1,0-0.1,0-0.1-0.1v-4.1c0-0.2,0-0.2,0.1-0.2l2.5,0c0.6,0,1,0.3,1.1,0.5
		c0.1,0.2,0.1,0.5,0.1,0.6c0,0.2,0,0.3,0.2,0.3c0.1,0,0.1-0.1,0.2-0.2c0-0.2,0.1-1.2,0.1-1.3c0-0.4,0.1-0.6,0.1-0.7l-0.1-0.1
		c-0.1,0-0.2,0.1-0.3,0.1c-0.2,0-0.4,0-0.7,0.1c-0.4,0-3.7,0-4.3,0c-0.5,0-1.5,0-2.4,0c-0.2,0-0.4,0-0.4,0.2c0,0.1,0.1,0.1,0.3,0.1
		c0.2,0,0.5,0,0.6,0c0.5,0.1,0.7,0.4,0.7,0.9c0,0.5,0,1,0,3.5v2.9c0,1.6,0,2.8-0.1,3.5c-0.1,0.5-0.1,0.8-0.5,0.9
		c-0.1,0-0.3,0.1-0.6,0.1c-0.2,0-0.2,0-0.2,0.1c0,0.1,0.1,0.2,0.3,0.2c0.6,0,1.7,0,2.1,0c0.4,0,1.5,0,2.5,0c0.2,0,0.4,0,0.4-0.2
		c0-0.1-0.1-0.1-0.3-0.1c-0.2,0-0.6,0-0.8-0.1c-0.5-0.1-0.6-0.4-0.6-0.9c-0.1-0.7-0.1-1.9-0.1-3.5V91.3z"/>
	<path fill="#FFFFFF" d="M85.6,95.4c-0.1,0.8-0.3,1.8-1,1.9c-0.4,0.1-0.5,0.1-0.7,0.1c-0.2,0-0.4,0-0.4,0.2c0,0.2,0.2,0.3,0.4,0.3
		c0.8,0,2-0.1,2.4-0.1c0.4,0,1.5,0.1,2.6,0.1c0.4,0,0.6,0,0.6-0.3c0-0.1-0.2-0.2-0.4-0.2c-0.2,0-0.6,0-1-0.1
		c-0.4-0.1-0.7-0.3-0.7-0.8c0-0.4,0-0.7,0.1-1.2l1.3-9.7h0.1c0.9,1.8,2.3,4.9,2.5,5.4c0.3,0.7,2.2,4.4,2.8,5.6
		c0.4,0.7,0.6,1.2,0.9,1.2c0.2,0,0.3-0.2,0.9-1.4l5.3-11.1h0.1l1.5,10.8c0.1,0.7,0,1-0.1,1.1c-0.2,0.1-0.3,0.1-0.3,0.3
		c0,0.1,0.1,0.2,0.7,0.3c1,0.1,4.4,0.1,5,0.1c0.3,0,0.6-0.1,0.6-0.3c0-0.1-0.2-0.2-0.4-0.2c-0.3,0-0.8,0-1.5-0.2
		c-0.7-0.2-1-0.9-1.2-2.5l-2.2-15.1c-0.1-0.5-0.2-0.8-0.4-0.8c-0.2,0-0.4,0.2-0.5,0.6l-6.7,14l-6.7-13.8c-0.3-0.6-0.5-0.8-0.7-0.8
		S88.1,79,88,79.4L85.6,95.4z"/>
	<line fill="#FFFFFF" x1="58" y1="107.1" x2="226.7" y2="107.1"/>
	<polyline fill="#FFFFFF" points="58,107.6 226.7,107.6 226.7,106.7 58,106.7 	"/>
	<path fill="#FFFFFF" d="M64.7,122.5c0.3,0,0.5-0.1,0.7-0.2V116c0-1.2,0-1.4,0.6-1.4l0.3,0v-0.3h-3.3v0.3l0.3,0
		c0.6,0.1,0.6,0.2,0.6,1.4v5.2c-0.3,0.2-0.9,0.6-1.8,0.6c-1.5,0-2-0.8-2-2.5V116c0-1.2,0-1.4,0.6-1.4l0.3,0v-0.3h-3.3v0.3l0.3,0
		c0.6,0.1,0.6,0.2,0.6,1.4v3.9c0,1.3,0.4,2.6,2.6,2.6c1.6,0,2.6-0.7,2.8-0.7c0.2,0,0.3,0.2,0.5,0.4L64.7,122.5z"/>
	<path fill-rule="evenodd" clip-rule="evenodd" fill="#FFFFFF" d="M67.8,121.1c0,0.6-0.1,0.8-0.5,0.8l-0.3,0v0.3h3V122l-0.3,0
		c-0.4,0-0.5-0.2-0.5-0.8v-3.4c0.2-0.2,0.5-0.5,1-0.5c1.3,0,1.3,1.2,1.3,2.1v1.7c0,0.6-0.1,0.8-0.5,0.8l-0.3,0v0.3h3V122l-0.3,0
		c-0.4,0-0.5-0.2-0.5-0.8v-2.4c0-1.7-0.7-2.2-1.8-2.2c-1,0-1.6,0.4-1.9,0.7v-0.7c-0.6,0-1.3,0.1-2.2,0.4v0.4c0,0,0.2-0.1,0.4-0.1
		c0.4,0,0.4,0.6,0.4,1V121.1z"/>
	<path fill-rule="evenodd" clip-rule="evenodd" fill="#FFFFFF" d="M74.6,122.3h3V122l-0.3,0c-0.4,0-0.5-0.2-0.5-0.8v-4.6
		c-0.6,0-1.3,0.1-2.2,0.4v0.4c0,0,0.2-0.1,0.4-0.1c0.4,0,0.4,0.6,0.4,1v2.9c0,0.6-0.1,0.8-0.5,0.8l-0.3,0V122.3z M76,115.5
		c0.5,0,0.9-0.4,0.9-0.9c0-0.5-0.4-0.8-0.9-0.8c-0.5,0-0.9,0.4-0.9,0.8C75.1,115.2,75.5,115.5,76,115.5z"/>
	<path fill="#FFFFFF" d="M80.5,122.5c0.3,0,0.5-0.1,0.7-0.3l1.9-4.5c0.2-0.6,0.3-0.5,0.6-0.6l0.2-0.1v-0.3h-2.4v0.3l0.5,0.1
		c0.2,0,0.4,0.1,0.4,0.2c0,0.1,0,0.3-0.1,0.5l-1.1,3l-1.2-3.1c0-0.1-0.1-0.3-0.1-0.4c0-0.1,0.2-0.2,0.4-0.2l0.5-0.1v-0.3h-3.3v0.3
		l0.2,0.1c0.3,0.1,0.4,0.1,0.6,0.6L80.5,122.5z"/>
	<path fill-rule="evenodd" clip-rule="evenodd" fill="#FFFFFF" d="M89.2,121.4c-0.2,0.1-0.7,0.4-1.3,0.4c-1.7,0-2-1.3-2.2-2.1
		c1.3-0.3,2.6-0.7,3.7-1.2c-0.1-0.7-0.5-2-2.4-2c-1.4,0-2.8,1.1-2.8,3c0,2,1.4,2.9,2.9,2.9c1.2,0,2-0.5,2.3-0.8L89.2,121.4z
		 M85.6,119.1c0-0.2,0-2.1,1.1-2.1c0.8,0,1.1,0.7,1.2,1.6C87.1,118.9,86.3,119,85.6,119.1z"/>
	<path fill="#FFFFFF" d="M90.7,121.1c0,0.6-0.1,0.8-0.5,0.8l-0.3,0v0.3h3.2V122l-0.5-0.1c-0.5-0.1-0.5-0.2-0.5-1.1v-3
		c0.2-0.2,0.3-0.2,0.5-0.2c0.2,0,0.9,0.3,1.1,0.3c0.4-0.3,0.6-0.5,0.7-0.9c-0.2-0.2-0.5-0.5-1-0.5c-0.6,0-1.1,0.6-1.4,0.8
		c0-0.4-0.1-0.6-0.1-0.8c-0.9,0.1-1.1,0.2-2.1,0.5v0.3c0.1,0,0.2-0.1,0.4-0.1c0.4,0,0.4,0.6,0.4,1V121.1z"/>
	<path fill="#FFFFFF" d="M98.7,118.4c0-0.5,0-1-0.1-1.5c-0.3-0.2-0.8-0.3-1.5-0.3c-2.2,0-2.2,1.5-2.2,1.6c0,2,2.8,1.6,2.8,3.1
		c0,0.4-0.3,0.8-0.8,0.8c-0.9,0-1.5-1-1.5-1.7h-0.5c0,0.7,0.1,1.2,0.2,1.7c0.4,0.2,1,0.4,1.7,0.4c1.7,0,2.3-0.8,2.3-1.8
		c0-1.9-2.8-1.7-2.8-2.9c0-0.4,0.3-0.8,0.7-0.8c0.9,0,1.2,1,1.2,1.4H98.7z"/>
	<path fill-rule="evenodd" clip-rule="evenodd" fill="#FFFFFF" d="M100,122.3h3V122l-0.3,0c-0.4,0-0.5-0.2-0.5-0.8v-4.6
		c-0.6,0-1.3,0.1-2.2,0.4v0.4c0,0,0.2-0.1,0.4-0.1c0.4,0,0.4,0.6,0.4,1v2.9c0,0.6-0.1,0.8-0.5,0.8l-0.3,0V122.3z M101.4,115.5
		c0.5,0,0.9-0.4,0.9-0.9c0-0.5-0.4-0.8-0.9-0.8c-0.5,0-0.9,0.4-0.9,0.8C100.5,115.2,100.9,115.5,101.4,115.5z"/>
	<path fill="#FFFFFF" d="M107.5,121.7c-0.2,0-0.3,0.1-0.6,0.1c-1,0-1-0.9-1-2.2v-2.3c0.4,0,0.9,0,1.3-0.1v-0.3
		c-0.3,0-1.1-0.1-1.3-0.1c0-0.4,0.1-1.3,0.1-1.5l-0.1-0.1c-0.6,0.3-1,0.6-1.5,1.1v0.5c-0.3,0-0.7,0.1-0.9,0.1v0.3
		c0.2,0,0.6,0.1,0.9,0.1v3.1c0,0.9,0,2.1,1.4,2.1c0.9,0,1.5-0.4,1.8-0.5L107.5,121.7z"/>
	<path fill="#FFFFFF" d="M112.1,119c0.6-1.4,0.8-1.8,1.2-1.9l0.2-0.1v-0.3h-2.4v0.3l0.5,0.1c0.2,0,0.4,0.1,0.4,0.2
		c0,0.1-0.1,0.3-0.1,0.4l-1.1,3.1l-1.2-3.1c0-0.1-0.1-0.3-0.1-0.4c0-0.1,0.2-0.2,0.4-0.2l0.5-0.1v-0.3h-3.3v0.3l0.3,0.1
		c0.4,0.1,0.4,0.3,0.6,0.7l1.6,3.6c0.2,0.4,0.3,0.7,0.3,1.2c0,1.1-1.9,1.3-2.1,1.9c0,0.2-0.1,0.4-0.1,0.6c0.1,0,0.2,0,0.3,0
		c1.3,0,1.9-1.2,2.4-2.4L112.1,119z"/>
	<path fill-rule="evenodd" clip-rule="evenodd" fill="#FFFFFF" d="M120.3,122.5c1.6,0,3.1-0.9,3.1-3.1c0-2-1.4-2.9-3-2.9
		c-1.5,0-3.1,0.9-3.1,3C117.2,121.6,118.7,122.5,120.3,122.5z M118.8,119.3c0-1,0.3-2.3,1.4-2.3c1.2,0,1.6,1.4,1.6,2.6
		c0,1-0.3,2.4-1.4,2.4C119.2,122,118.8,120.6,118.8,119.3z"/>
	<path fill="#FFFFFF" d="M125.1,121.1c0,0.6-0.1,0.8-0.5,0.8l-0.2,0v0.3h3.2V122l-0.5,0c-0.5,0-0.5-0.2-0.5-0.8v-3.9
		c0.5,0,1-0.1,1.5-0.1v-0.3c-0.4,0-1.2-0.1-1.5-0.1V116c0-1.1,0-2.1,0.8-2.1c0.5,0,1,0.5,1.3,0.7h0.1c0.3-0.3,0.4-0.5,0.5-0.9
		c-0.3-0.2-0.7-0.4-1.3-0.4c-1.9,0-2.8,1.7-2.8,3.4c-0.3,0-0.7,0.1-0.9,0.1v0.3c0.3,0.1,0.6,0.1,0.9,0.1V121.1z"/>
	<path fill="#FFFFFF" d="M134.4,116c0-1.2,0-1.4,0.6-1.4l0.3,0v-0.3h-3.3v0.3l0.3,0c0.6,0.1,0.6,0.2,0.6,1.5v4.5
		c0,1.2,0,1.4-0.6,1.4l-0.3,0v0.3h3.3V122l-0.3,0c-0.6-0.1-0.6-0.2-0.6-1.4V116z"/>
	<path fill-rule="evenodd" clip-rule="evenodd" fill="#FFFFFF" d="M139.3,122.5c1.6,0,3.1-0.9,3.1-3.1c0-2-1.4-2.9-3-2.9
		c-1.5,0-3.1,0.9-3.1,3C136.3,121.6,137.7,122.5,139.3,122.5z M137.8,119.3c0-1,0.3-2.3,1.4-2.3c1.2,0,1.6,1.4,1.6,2.6
		c0,1-0.3,2.4-1.4,2.4C138.3,122,137.8,120.6,137.8,119.3z"/>
	<path fill="#FFFFFF" d="M145.2,122.5c0.3-0.1,0.5-0.1,0.7-0.3l1.4-3.5l1.5,3.8c0.3,0,0.5-0.1,0.7-0.3l1.6-4.3
		c0.2-0.4,0.2-0.7,0.6-0.8l0.3-0.1v-0.3h-2.4v0.3l0.5,0.1c0.2,0,0.4,0.1,0.4,0.2c0,0.2-0.1,0.4-0.1,0.6l-0.8,2.7h0l-1.6-4
		c-0.3,0-0.4,0-0.6,0.1l-1.4,3.9h0l-0.9-2.8c-0.1-0.3-0.1-0.4-0.1-0.5c0-0.1,0.2-0.2,0.4-0.2l0.5-0.1v-0.3h-3.2v0.3l0.3,0.1
		c0.4,0.1,0.4,0.4,0.6,0.8L145.2,122.5z"/>
	<path fill-rule="evenodd" clip-rule="evenodd" fill="#FFFFFF" d="M157.6,122L157.6,122c-0.9,0-0.9-0.9-0.9-1.8v-1.5
		c0-1.4-0.3-2.2-1.8-2.2c-1.2,0-2.1,0.7-2.6,1.3c0.1,0.3,0.2,0.4,0.3,0.6h0.1c0.2-0.4,0.5-1.2,1.5-1.2c0.9,0,1.1,0.6,1.1,1.4v0.3
		c-1,0.3-3.2,0.7-3.2,2.2c0,0.8,0.6,1.3,1.6,1.3c0.9,0,1.4-0.4,1.7-0.6c0.2,0.3,0.4,0.6,1.2,0.6c0.5,0,0.9-0.2,1.1-0.3L157.6,122z
		 M155.3,120.8c0,0.2,0,0.5,0,0.7c-0.1,0.1-0.3,0.3-0.7,0.3c-0.6,0-0.9-0.4-0.9-1c0-0.9,0.8-1.3,1.5-1.3l0.1,0V120.8z"/>
	<path fill="#FFFFFF" d="M162.5,120.5c0,1.2,0,1.4-0.6,1.4l-0.3,0v0.3h3.3V122l-0.3,0c-0.6-0.1-0.6-0.2-0.6-1.4v-2.1h3.7v2.1
		c0,1.2,0,1.4-0.6,1.5l-0.3,0v0.3h3.3V122l-0.3,0c-0.6-0.1-0.6-0.2-0.6-1.5V116c0-1.2,0-1.4,0.6-1.5l0.3,0v-0.3H167v0.3l0.3,0
		c0.6,0.1,0.6,0.2,0.6,1.5v1.8h-3.7V116c0-1.2,0-1.4,0.6-1.4l0.3,0v-0.3h-3.3v0.3l0.3,0c0.6,0.1,0.6,0.2,0.6,1.5V120.5z"/>
	<path fill-rule="evenodd" clip-rule="evenodd" fill="#FFFFFF" d="M176.4,121.4c-0.2,0.1-0.7,0.4-1.3,0.4c-1.7,0-2-1.3-2.2-2.1
		c1.3-0.3,2.6-0.7,3.7-1.2c-0.1-0.7-0.5-2-2.4-2c-1.4,0-2.8,1.1-2.8,3c0,2,1.4,2.9,2.9,2.9c1.2,0,2-0.5,2.3-0.8L176.4,121.4z
		 M172.8,119.1c0-0.2,0-2.1,1.1-2.1c0.8,0,1.1,0.7,1.2,1.6C174.4,118.9,173.6,119,172.8,119.1z"/>
	<path fill-rule="evenodd" clip-rule="evenodd" fill="#FFFFFF" d="M182.8,122L182.8,122c-0.9,0-0.9-0.9-0.9-1.8v-1.5
		c0-1.4-0.3-2.2-1.8-2.2c-1.2,0-2.1,0.7-2.6,1.3c0.1,0.3,0.2,0.4,0.3,0.6h0.1c0.2-0.4,0.5-1.2,1.5-1.2c0.9,0,1.1,0.6,1.1,1.4v0.3
		c-1,0.3-3.2,0.7-3.2,2.2c0,0.8,0.6,1.3,1.6,1.3c0.9,0,1.4-0.4,1.7-0.6c0.2,0.3,0.4,0.6,1.2,0.6c0.5,0,0.9-0.2,1.1-0.3L182.8,122z
		 M180.4,120.8c0,0.2,0,0.5,0,0.7c-0.1,0.1-0.3,0.3-0.7,0.3c-0.6,0-0.9-0.4-0.9-1c0-0.9,0.8-1.3,1.5-1.3l0.1,0V120.8z"/>
	<path fill="#FFFFFF" d="M183.3,122.3h3V122l-0.3,0c-0.4,0-0.5-0.2-0.5-0.8v-7.6c-0.7,0-1.2,0.1-2.2,0.3v0.3c0,0,0.2,0,0.3,0
		c0.4,0,0.4,0.5,0.4,1.6v5.5c0,0.6-0.1,0.8-0.5,0.8l-0.3,0V122.3z"/>
	<path fill="#FFFFFF" d="M190.9,121.7c-0.2,0-0.3,0.1-0.6,0.1c-1,0-1-0.9-1-2.2v-2.3c0.4,0,0.9,0,1.3-0.1v-0.3
		c-0.3,0-1.1-0.1-1.3-0.1c0-0.4,0.1-1.3,0.1-1.5l-0.1-0.1c-0.6,0.3-1,0.6-1.5,1.1v0.5c-0.3,0-0.7,0.1-0.9,0.1v0.3
		c0.2,0,0.6,0.1,0.9,0.1v3.1c0,0.9,0,2.1,1.4,2.1c0.9,0,1.5-0.4,1.8-0.5L190.9,121.7z"/>
	<path fill="#FFFFFF" d="M191.9,121.1c0,0.6-0.1,0.8-0.5,0.8l-0.3,0v0.3h3V122l-0.3,0c-0.4-0.1-0.5-0.2-0.5-0.8v-3.4
		c0.2-0.1,0.5-0.5,1.1-0.5c0.9,0,1.3,0.6,1.3,1.5v2.3c0,0.6-0.1,0.8-0.5,0.8l-0.3,0v0.3h3V122l-0.3,0c-0.4-0.1-0.5-0.2-0.5-0.8V119
		c0-0.8,0-2.5-1.9-2.5c-1,0-1.6,0.4-1.9,0.7v-3.8c-0.7,0-1.2,0.1-2.2,0.3v0.3c0,0,0.2,0,0.3,0c0.4,0,0.4,0.5,0.4,1.5V121.1z"/>
	<path fill="#FFFFFF" d="M209.4,119.7c0,0.1-0.4,2.3-2.6,2.3c-2.8,0-2.8-3.5-2.8-3.9c0-2.2,1.1-3.6,2.8-3.6c2,0,2.3,1.6,2.3,2.1
		l0.4-0.1c0-1.2-0.1-1.6-0.2-2c-0.5-0.2-1.2-0.5-2.5-0.5c-2.3,0-4.6,1.3-4.6,4.3c0,3.2,2.3,4.2,4.6,4.2c1.4,0,2.1-0.3,2.6-0.5
		c0.3-0.6,0.4-1.3,0.5-2.2L209.4,119.7z"/>
	<path fill-rule="evenodd" clip-rule="evenodd" fill="#FFFFFF" d="M216.1,122L216.1,122c-0.9,0-0.9-0.9-0.9-1.8v-1.5
		c0-1.4-0.3-2.2-1.8-2.2c-1.2,0-2.1,0.7-2.6,1.3c0.1,0.3,0.2,0.4,0.3,0.6h0.1c0.2-0.4,0.5-1.2,1.5-1.2c0.9,0,1.1,0.6,1.1,1.4v0.3
		c-1,0.3-3.2,0.7-3.2,2.2c0,0.8,0.6,1.3,1.6,1.3c0.9,0,1.4-0.4,1.7-0.6c0.2,0.3,0.4,0.6,1.2,0.6c0.5,0,0.9-0.2,1.1-0.3L216.1,122z
		 M213.7,120.8c0,0.2,0,0.5,0,0.7c-0.1,0.1-0.3,0.3-0.7,0.3c-0.5,0-0.9-0.4-0.9-1c0-0.9,0.8-1.3,1.5-1.3l0.1,0V120.8z"/>
	<path fill="#FFFFFF" d="M217.4,121.1c0,0.6-0.1,0.8-0.5,0.8l-0.3,0v0.3h3.2V122l-0.5-0.1c-0.5-0.1-0.5-0.2-0.5-1.1v-3
		c0.2-0.2,0.3-0.2,0.5-0.2c0.2,0,0.9,0.3,1.1,0.3c0.4-0.3,0.6-0.5,0.7-0.9c-0.2-0.2-0.5-0.5-1-0.5c-0.6,0-1.1,0.6-1.4,0.8
		c0-0.4-0.1-0.6-0.1-0.8c-0.9,0.1-1.1,0.2-2.1,0.5v0.3c0.1,0,0.2-0.1,0.4-0.1c0.4,0,0.4,0.6,0.4,1V121.1z"/>
	<path fill-rule="evenodd" clip-rule="evenodd" fill="#FFFFFF" d="M226.5,121.4c-0.2,0.1-0.7,0.4-1.3,0.4c-1.7,0-2-1.3-2.2-2.1
		c1.3-0.3,2.6-0.7,3.7-1.2c-0.1-0.7-0.5-2-2.4-2c-1.4,0-2.8,1.1-2.8,3c0,2,1.4,2.9,2.9,2.9c1.2,0,2-0.5,2.3-0.8L226.5,121.4z
		 M222.9,119.1c0-0.2,0-2.1,1.1-2.1c0.8,0,1.1,0.7,1.2,1.6C224.4,118.9,223.7,119,222.9,119.1z"/>
</g>
</svg>
