<svg xmlns="http://www.w3.org/2000/svg" id="Layer_1_copy" data-name="Layer 1 copy" width="323.71mm" height="133.03mm" viewBox="0 0 917.6 377.1"><defs><style>.cls-1{fill:#fff;}</style></defs><path class="cls-1" d="M457.9,7.7a129.08,129.08,0,0,0-80.4,28C358,51,342.8,71.7,334.9,93.8A100.39,100.39,0,0,1,303,137.6c-8.6,6.7-21.5,14.5-38,17.3V41.7a79.4,79.4,0,0,1,21.6,7V138a79.65,79.65,0,0,0,9.1-6.2,90.48,90.48,0,0,0,16.9-17.5V67.7a101.68,101.68,0,0,1,14.3,18.5,135,135,0,0,1,21.7-35.5,144.8,144.8,0,0,0-16.2-15.1,129.43,129.43,0,0,0-160.8,0C152.1,51,137,71.7,129.1,93.8a100.39,100.39,0,0,1-31.9,43.8c-8.5,6.7-21.5,14.5-38,17.3V41.7a79.4,79.4,0,0,1,21.6,7v89.2a89.63,89.63,0,0,0,9.1-6.2,91.53,91.53,0,0,0,17-17.6V67.7a101.68,101.68,0,0,1,14.3,18.5,137.7,137.7,0,0,1,21.7-35.5,144.8,144.8,0,0,0-16.2-15.1,129.08,129.08,0,0,0-80.4-28H29C17.4,7.7,8.1,15,8.1,24.1s9.3,16.5,20.8,16.5h4.2V156H29c-11.5,0-20.8,7.4-20.8,16.5S17.5,189,29,189H46.2a129.08,129.08,0,0,0,80.4-28c19.6-15.4,34.7-36.1,42.6-58.2A100.39,100.39,0,0,1,201.1,59c8.6-6.7,21.5-14.5,38.1-17.3V154.9a79.4,79.4,0,0,1-21.6-7V58.6a79.65,79.65,0,0,0-9.1,6.2,93.41,93.41,0,0,0-16.9,17.5v46.6a101.68,101.68,0,0,1-14.3-18.5,137.7,137.7,0,0,1-21.7,35.5A144.8,144.8,0,0,0,171.8,161a129.43,129.43,0,0,0,160.8,0c19.6-15.4,34.7-36.1,42.6-58.2A100.39,100.39,0,0,1,407.1,59c8.5-6.7,21.5-14.5,38-17.3V154.9a79.4,79.4,0,0,1-21.6-7V58.7a89.63,89.63,0,0,0-9.1,6.2,94.6,94.6,0,0,0-17,17.6V129a101.68,101.68,0,0,1-14.3-18.5A137.7,137.7,0,0,1,361.4,146a144.8,144.8,0,0,0,16.2,15.1,129.08,129.08,0,0,0,80.4,28"></path><path class="cls-1" d="M493.2,147.7a81.22,81.22,0,0,1-22,7.2V41.7a96.58,96.58,0,0,1,23.3,7.7s9.4-17.1,16.7-30.5A129.45,129.45,0,0,0,377.9,35.6L407.2,59c8.6-6.7,21.5-14.5,38.1-17.3V154.9a79.4,79.4,0,0,1-21.6-7V58.6a79.65,79.65,0,0,0-9.1,6.2,93.41,93.41,0,0,0-16.9,17.5v46.6a101.68,101.68,0,0,1-14.3-18.5,137.7,137.7,0,0,1-21.7,35.5A144.8,144.8,0,0,0,377.9,161a129.08,129.08,0,0,0,80.4,28A128.43,128.43,0,0,0,510,178.2Z"></path><path class="cls-1" d="M511.1,18.9a141.42,141.42,0,0,1,29.1,17.3,135.79,135.79,0,0,1,16.2,15,133.58,133.58,0,0,0-21.6,35.3,101,101,0,0,0-14.3-18.4v46.2a90.44,90.44,0,0,1-17,17.4,79.72,79.72,0,0,1-9.1,6.1V49.3C496,45,504.1,30.4,511.1,18.9Z"></path><path class="cls-1" d="M511.1,137c9.3-5.9,25.3-26.7,31.1-43.1,7.9-22,23-42.5,42.6-57.8a130.16,130.16,0,0,1,160.8,0,135.79,135.79,0,0,1,16.2,15,136.63,136.63,0,0,0-21.7,35.3A105.62,105.62,0,0,0,725.8,68v46.3a96.08,96.08,0,0,1-16.9,17.4,95.1,95.1,0,0,1-9.1,6.2V49a79.37,79.37,0,0,0-21.6-6.9V154.5a85.07,85.07,0,0,0,38-17.2c14.4-11.2,26-27.1,31.9-43.5,7.9-22,23-42.5,42.6-57.8A130,130,0,0,1,871.1,8.3h17.2c11.5,0,20.8,7.3,20.8,16.4s-9.3,16.4-20.8,16.4h-4.2V155.7h4.2c11.5,0,20.8,7.3,20.8,16.4s-9.3,16.4-20.8,16.4H871.1a129.49,129.49,0,0,1-80.4-27.8,135.79,135.79,0,0,1-16.2-15,136.63,136.63,0,0,0,21.7-35.3,101,101,0,0,0,14.3,18.4V82.5a90.44,90.44,0,0,1,17-17.4,79.72,79.72,0,0,1,9.1-6.1v88.6a79.37,79.37,0,0,0,21.6,6.9V42.1a85.07,85.07,0,0,0-38,17.2c-14.4,11.2-26,27.1-31.9,43.5-7.9,22-23,42.5-42.6,57.8a130.16,130.16,0,0,1-160.8,0,135.79,135.79,0,0,1-16.2-15,136.63,136.63,0,0,0,21.7-35.3,105.62,105.62,0,0,0,14.3,18.4V82.5a96.08,96.08,0,0,1,16.9-17.4,95.1,95.1,0,0,1,9.1-6.2v88.7a79.37,79.37,0,0,0,21.6,6.9V42.1a86,86,0,0,0-38.1,17.2c-14.4,11.2-26,27.1-31.9,43.5-7.9,22-23,42.5-42.6,57.8a136.58,136.58,0,0,1-29.8,17.6s-15.9-28.8-16.8-30.5A100.61,100.61,0,0,0,511.1,137Z"></path><path class="cls-1" d="M23.6,315.5v51.8H10V246.1H74.9v12.5H23.6V303H71.8v12.5Zm70.5,51.7V246.1H127c15.4,0,26.6,2.4,33.5,7.2s10.3,12.4,10.3,22.8h0c0,7.2-1.9,13.1-5.8,17.8s-9.5,7.7-16.8,9.1h0v.8c17.7,3.1,26.5,12.8,26.5,29h0c0,10.8-3.5,19.3-10.5,25.3s-16.9,9.1-29.5,9.1H94.1Zm13.6-108.9V298H130c9.5,0,16.4-1.6,20.6-4.7s6.3-8.4,6.3-15.8h0c0-6.8-2.3-11.7-7-14.7s-12.1-4.5-22.3-4.5H107.7Zm23.1,51.6H107.7v45.3H132c9.4,0,16.5-1.9,21.2-5.7s7.1-9.7,7.1-17.8h0c0-7.5-2.4-13-7.3-16.6-4.9-3.4-12.3-5.2-22.2-5.2Zm68.9,57.3V246.1h32.9c15.4,0,26.6,2.4,33.5,7.2s10.3,12.4,10.3,22.8h0c0,7.2-1.9,13.1-5.8,17.8s-9.5,7.7-16.8,9.1h0v.8c17.7,3.1,26.5,12.8,26.5,29h0c0,10.8-3.5,19.3-10.5,25.3s-16.9,9.1-29.5,9.1H199.7Zm13.6-108.9V298h22.3c9.5,0,16.4-1.6,20.6-4.7s6.3-8.4,6.3-15.8h0c0-6.8-2.3-11.7-7-14.7s-12.1-4.5-22.3-4.5H213.3Zm23.1,51.6H213.3v45.3h24.3c9.4,0,16.5-1.9,21.2-5.7s7.1-9.7,7.1-17.8h0c0-7.5-2.4-13-7.3-16.6-4.9-3.4-12.3-5.2-22.2-5.2Zm111.3,57.3V246.1h32.9c15.4,0,26.6,2.4,33.5,7.2s10.3,12.4,10.3,22.8h0c0,7.2-1.9,13.1-5.8,17.8s-9.5,7.7-16.8,9.1h0v.8c17.7,3.1,26.5,12.8,26.5,29h0c0,10.8-3.5,19.3-10.5,25.3s-16.9,9.1-29.5,9.1H347.7Zm13.5-108.9V298h22.3c9.5,0,16.4-1.6,20.6-4.7s6.3-8.4,6.3-15.8h0c0-6.8-2.3-11.7-7-14.7s-12.1-4.5-22.3-4.5H361.2Zm23.1,51.6H361.2v45.3h24.3c9.4,0,16.5-1.9,21.2-5.7s7.1-9.7,7.1-17.8h0c0-7.5-2.4-13-7.3-16.6-4.8-3.4-12.2-5.2-22.2-5.2Zm80.2-33.4v90.8H451.3V276.5Zm-14.4-24.6h0c0-3.1.7-5.4,2.2-6.9a7.46,7.46,0,0,1,5.6-2.2h0a7.71,7.71,0,0,1,5.5,2.2c1.5,1.5,2.3,3.8,2.3,6.9h0c0,3.1-.8,5.4-2.3,6.9a7.64,7.64,0,0,1-5.5,2.3h0a7.7,7.7,0,0,1-5.6-2.3C450.9,257.3,450.1,255,450.1,251.9Zm117.7,69.9h0c0,14.8-3.6,26.4-10.8,34.7S539.9,369,527.3,369h0a38.44,38.44,0,0,1-20.8-5.7,37.06,37.06,0,0,1-14-16.4c-3.3-7.1-4.9-15.5-4.9-25h0c0-14.8,3.6-26.3,10.7-34.6s17-12.4,29.6-12.4h0c12.2,0,21.9,4.2,29.1,12.7C564.2,295.9,567.8,307.4,567.8,321.8Zm-66.5,0h0c0,11.6,2.2,20.4,6.7,26.5s11,9.1,19.7,9.1h0c8.6,0,15.2-3,19.7-9.1s6.7-14.9,6.7-26.5h0c0-11.5-2.2-20.3-6.7-26.3s-11.1-9-19.8-9h0c-8.6,0-15.2,3-19.6,8.9S501.3,310.1,501.3,321.8Zm214,45.4H702.1v-59c0-7.2-1.5-12.7-4.5-16.3s-7.6-5.4-13.8-5.4h0c-8.2,0-14.3,2.5-18.2,7.4s-5.9,12.5-5.9,22.7h0v50.7H646.5v-59c0-7.2-1.5-12.7-4.5-16.3s-7.6-5.4-13.9-5.4h0c-8.3,0-14.3,2.6-18.2,7.8s-5.8,13.6-5.8,25.4h0v47.6H590.9V276.6h10.8l2.1,12.4h.6a26,26,0,0,1,10.5-10.3,30.82,30.82,0,0,1,15.2-3.7h0c13.6,0,22.5,5.1,26.7,15.4h.6a29.22,29.22,0,0,1,11.3-11.3,33.58,33.58,0,0,1,16.9-4.1h0c9.9,0,17.3,2.6,22.2,7.9s7.3,13.7,7.3,25.3h0v59Zm64,1.7h0c-12.9,0-23.1-4.1-30.5-12.3s-11.2-19.5-11.2-34h0c0-14.6,3.5-26.3,10.4-34.9s16.2-12.9,27.9-12.9h0c10.9,0,19.6,3.7,25.9,11.2s9.5,17.4,9.5,29.6h0v8.7H751.2c.3,10.7,2.9,18.7,7.8,24.3s11.8,8.3,20.7,8.3h0a67.9,67.9,0,0,0,27.9-6.1h0V363a68.8,68.8,0,0,1-13.2,4.5A72.53,72.53,0,0,1,779.3,368.9Zm-3.6-82.6h0c-7,0-12.6,2.4-16.7,7.1s-6.6,11.3-7.4,19.7h45.6c0-8.7-1.9-15.3-5.6-19.9S782.6,286.3,775.7,286.3Zm116.9,80.9V355c-6.1,9.2-15.2,13.8-27.4,13.8h0c-11.4,0-20.3-4.1-26.6-12.2s-9.5-19.7-9.5-34.6h0c0-15,3.2-26.6,9.5-34.9s15.2-12.4,26.6-12.4h0c11.8,0,20.9,4.5,27.2,13.4h0l.1-49.8h13.2V367.2Zm-25.7-9.8h0c9,0,15.6-2.6,19.6-7.7s6.1-13.3,6.1-24.7h0v-2.9c0-12.9-2.1-22-6.2-27.5s-10.7-8.2-19.7-8.2h0c-7.7,0-13.7,3.1-17.8,9.4s-6.2,15.1-6.2,26.5h0c0,11.6,2,20.3,6.1,26.2S859,357.4,866.9,357.4Z"></path><circle class="cls-1" cx="501.7" cy="33.8" r="17"></circle><circle class="cls-1" cx="501.7" cy="162.8" r="17"></circle></svg>